<?xml version="1.0" encoding="UTF-8"?>
<svg id="Calque_2" data-name="Calque 2" xmlns="http://www.w3.org/2000/svg" viewBox="0 0 655.02 133.24">
  <defs>
    <style>
      .cls-1 {
        fill: lime;
      }
    </style>
  </defs>
  <g id="Calque_3" data-name="Calque 3">
    <path class="cls-1" d="M299.6,54.43c1.05,0,2.06,.25,2.99,.75,.08,.04,.16,.09,.24,.13,3.13,1.83,4.2,5.92,2.39,9.1-.94,1.66-2.55,2.82-4.4,3.19-1.16,.23-2.16,.94-2.75,1.96-.59,1.02-.71,2.24-.33,3.35,.61,1.8,.42,3.77-.51,5.41-1.14,2-3.26,3.25-5.53,3.25-1.11,0-2.2-.3-3.17-.87-1.74-1.02-2.89-2.77-3.15-4.81-.02-.17-.05-.34-.1-.5l-3.93-14.91c-.18-.66,.2-1.35,.84-1.52l14.7-4c.17-.04,.34-.09,.49-.14,.72-.27,1.47-.4,2.23-.4m0-2.52c-1.06,0-2.11,.19-3.11,.56-.06,.02-.11,.04-.17,.05-.03,0-.06,.01-.09,.02l-14.71,4c-1.97,.54-3.14,2.59-2.61,4.59l3.93,14.91c.02,.06,.03,.12,.04,.18,.35,2.69,1.88,5.2,4.38,6.66,1.4,.82,2.94,1.21,4.45,1.21,3.08,0,6.07-1.62,7.72-4.52,1.34-2.36,1.52-5.08,.71-7.47-.31-.9,.24-1.84,1.17-2.03,2.48-.49,4.74-2.02,6.1-4.41,2.49-4.38,1.01-9.99-3.3-12.52-.11-.06-.22-.12-.32-.18-1.33-.71-2.76-1.05-4.18-1.05h0Z"/>
    <path class="cls-1" d="M300.54,43.11c2.46-4.33,1-9.86-3.26-12.36-2.96-1.73-6.49-1.55-9.2,.18,.12-3.28-1.51-6.52-4.51-8.28-4.32-2.53-9.84-1.03-12.33,3.35-.06,.11-.12,.22-.18,.33-1.24,2.39-1.33,5.11-.45,7.48,.01,.06,.02,.12,.04,.18l3.94,14.94c.53,2,2.55,3.19,4.52,2.65l14.77-4.02c2.69-.33,5.19-1.89,6.65-4.46Z"/>
    <path class="cls-1" d="M256.64,30.65c1.11,0,2.2,.3,3.17,.87,1.74,1.02,2.89,2.78,3.16,4.81,.02,.17,.05,.33,.1,.49l3.94,14.91c.18,.66-.2,1.35-.84,1.52l-14.7,4c-.17,.04-.34,.09-.49,.14-.72,.27-1.47,.4-2.23,.4-1.05,0-2.06-.25-2.99-.75-.08-.04-.16-.09-.24-.13-3.13-1.83-4.2-5.92-2.39-9.1,.96-1.68,2.58-2.85,4.46-3.2,1.15-.21,2.14-.92,2.72-1.92,.58-1.01,.7-2.22,.31-3.32-.63-1.81-.46-3.81,.49-5.47,1.14-2,3.26-3.25,5.53-3.25m0-2.52c-3.08,0-6.07,1.62-7.72,4.52-1.36,2.39-1.52,5.14-.68,7.55,.3,.86-.23,1.77-1.12,1.93-2.51,.47-4.81,2.01-6.18,4.43-2.49,4.38-1.01,9.99,3.3,12.52,.11,.06,.22,.12,.32,.18,1.33,.71,2.76,1.05,4.18,1.05,1.06,0,2.11-.19,3.11-.56,.06-.02,.11-.04,.17-.05,.03,0,.06-.01,.09-.02l14.71-4c1.97-.54,3.14-2.59,2.61-4.59l-3.94-14.91c-.02-.06-.03-.11-.03-.17-.35-2.69-1.88-5.2-4.38-6.66-1.4-.82-2.94-1.21-4.45-1.21h0Z"/>
    <path class="cls-1" d="M247.89,69.25c-2.46,4.33-1,9.86,3.26,12.36,2.96,1.73,6.49,1.55,9.2-.18-.12,3.28,1.51,6.52,4.51,8.28,4.32,2.53,9.84,1.03,12.33-3.35,.06-.11,.12-.22,.18-.33,1.24-2.39,1.33-5.11,.45-7.48-.01-.06-.02-.12-.04-.18l-3.94-14.94c-.53-2-2.55-3.19-4.52-2.65l-14.77,4.02c-2.69,.33-5.19,1.89-6.65,4.46Z"/>
    <path class="cls-1" d="M98.15,85.52c-9.73,16.7-26.61,26.66-45.15,26.66C23.77,112.18,0,87.06,0,56.19S23.77,.2,52.99,.2c13.1,0,25.67,5.09,35.4,14.32l-4.36,4.59c-8.55-8.12-19.58-12.59-31.04-12.59C27.26,6.52,6.33,28.8,6.33,56.19s20.93,49.66,46.67,49.66c16.26,0,31.1-8.79,39.68-23.52l5.47,3.19Z"/>
    <path class="cls-1" d="M207.06,104.69v6.33H126.69V1.63h6.33V104.69h74.05Z"/>
    <path class="cls-1" d="M328.2,56.06c0,30.91-25.15,56.06-56.06,56.06s-56.06-25.15-56.06-56.06S241.23,0,272.14,0s56.06,25.15,56.06,56.06Zm-6.33,0c0-27.42-22.31-49.73-49.73-49.73s-49.73,22.31-49.73,49.73,22.31,49.73,49.73,49.73,49.73-22.31,49.73-49.73Z"/>
    <path class="cls-1" d="M455.06,1.63l-53.14,109.13h-7.04L341.73,1.63h7.04l49.62,101.9L448.02,1.63h7.04Z"/>
    <path class="cls-1" d="M488.36,8.07V53.22h44.48v6.33h-44.48v45.15h48.31v6.33h-54.64V1.74h54.64v6.33h-48.31Z"/>
    <path class="cls-1" d="M647.32,110.76l-26.85-38.71c-1.63,.23-3.29,.36-4.98,.36h-41.88v38.35h-6.33V1.74h48.21c19.49,0,35.34,15.85,35.34,35.34,0,15.43-9.95,28.58-23.77,33.38l27.96,40.3h-7.7Zm-31.83-44.68c16,0,29.01-13.01,29.01-29.01s-13.01-29.01-29.01-29.01h-41.88v58.01h41.88Z"/>
    <g>
      <path class="cls-1" d="M400.13,108.81l-2.32-2.23c-.82,.85-1.66,1.67-2.5,2.48l4.82-.26Z"/>
      <path class="cls-1" d="M335.1,131.11c.49-1.62-.46-3.31-2.09-3.76-2.32-.65-4.6-1.46-6.82-2.44-13.31-5.88-21.25-16.67-25.57-24.68l-5.28,2.85c4.76,8.84,13.56,20.75,28.43,27.32,2.5,1.1,5.06,2.01,7.68,2.73,1.56,.43,3.19-.47,3.66-2.02h0Z"/>
    </g>
  </g>
</svg>